<?xml version="1.0" encoding="UTF-8"?>
<svg width="205px" height="19px" viewBox="0 0 205 19" version="1.1" xmlns="http://www.w3.org/2000/svg" xmlns:xlink="http://www.w3.org/1999/xlink">
    <title>logo_PChomeThai_tw</title>
    <g id="首頁" stroke="none" stroke-width="1" fill="none" fill-rule="evenodd">
        <g id="泰國購物-首頁" transform="translate(-121.000000, -57.000000)" fill="#FFFFFF">
            <g id="Header+Link區" transform="translate(0.000000, 35.000000)">
                <g id="Group" transform="translate(121.000000, 20.000000)">
                    <g id="logo_PChomeThai_white" transform="translate(0.000000, 2.300000)">
                        <path d="M0,18.4 L4.04354839,18.4 L4.85967742,12.6806667 L7.15225806,12.6806667 C10.6764516,12.6806667 12.9096774,10.8943333 13.4883871,6.82333333 C14.0522581,2.86733333 11.9896774,1.15 8.65096774,1.15 L2.46322581,1.15 L0,18.4 Z M5.96516129,4.75333333 L6.64032258,4.75333333 C8.1983871,4.75333333 9.53387097,4.77633333 9.22225806,6.93833333 C8.92548387,9.039 7.48612903,9.039 6.03193548,9.039 L5.35677419,9.039 C5.35677419,9.039 5.96516129,4.75333333 5.96516129,4.75333333 L5.96516129,4.75333333 Z" id="Fill-1"></path>
                        <path d="M23.4822581,1.196 L23.4822581,1.196 C23.2003226,1.16533333 22.9183871,1.15 22.6216129,1.15 C20.5516129,1.15 18.3109677,2.15433333 16.6267742,3.80266667 C14.9870968,5.405 13.9187097,7.55933333 13.5996774,9.798 C13.2509677,12.2283333 13.6887097,14.3596667 15.0835484,15.9926667 C16.3893548,17.5336667 18.2219355,18.4 20.2770968,18.4 C20.5219355,18.4 20.7667742,18.3846667 20.9967742,18.354 C21.8870968,18.2543333 22.7180645,17.9783333 23.7716129,17.6333333 L24.506129,12.5273333 C23.7122581,13.409 22.6587097,14.0146667 21.6051613,14.1986667 C21.3825806,14.237 21.1674194,14.2676667 20.9522581,14.2676667 C18.5632258,14.2676667 17.2277419,12.397 17.5987097,9.81333333 C17.9622581,7.27566667 19.8319355,5.27466667 22.183871,5.27466667 C22.4287097,5.27466667 22.666129,5.30533333 22.896129,5.34366667 C23.9125806,5.52766667 24.7954839,6.118 25.2925806,7.07633333 L26.0196774,1.97033333 C25.2109677,1.57166667 24.3874194,1.30333333 23.4896774,1.196 L23.4822581,1.196 Z" id="Fill-3"></path>
                        <path d="M30.2041935,2.024 L29.1729032,9.21533333 L29.21,9.21533333 C30.0706452,8.165 31.0054839,7.67433333 32.2148387,7.67433333 C34.4183871,7.67433333 35.2567742,9.292 34.9080645,11.7376667 L34.0622581,17.6486667 L30.9758065,17.6486667 L31.6806452,12.696 C31.843871,11.569 31.8587097,10.4036667 30.6196774,10.4036667 C29.3806452,10.4036667 28.8390323,11.569 28.6832258,12.696 L27.9783871,17.6486667 L24.8919355,17.6486667 L27.1177419,2.024 C27.1177419,2.024 30.2041935,2.024 30.2041935,2.024" id="Fill-5"></path>
                        <path d="M41.7783871,7.67433333 C38.9812903,7.67433333 36.2732258,9.53733333 35.8058065,12.834 C35.3383871,16.1306667 37.5345161,17.9783333 40.3093548,17.9783333 C43.0841935,17.9783333 45.8145161,16.1153333 46.2893548,12.834 C46.7567742,9.545 44.5829032,7.67433333 41.7783871,7.67433333 M41.3554839,10.649 C42.6093548,10.649 43.1954839,11.6456667 43.0248387,12.834 C42.8467742,14.0606667 41.986129,14.996 40.7322581,14.996 C39.4783871,14.996 38.8848387,14.053 39.0629032,12.834 C39.226129,11.6533333 40.1016129,10.649 41.3554839,10.649" id="Fill-7"></path>
                        <path d="M50.9412903,9.2 L50.9709677,9.2 C51.853871,8.12666667 52.8183871,7.67433333 53.9387097,7.67433333 C55.1925806,7.67433333 56.2016129,8.24166667 56.6467742,9.522 C57.4109677,8.31833333 58.6722581,7.67433333 59.8593548,7.67433333 C62.0629032,7.67433333 62.5970968,9.27666667 62.2854839,11.4923333 L61.41,17.6486667 L58.3235484,17.6486667 L58.983871,13.041 C59.1248387,12.0443333 59.3919355,10.4036667 58.086129,10.4036667 C56.6616129,10.4036667 56.3945161,11.891 56.2312903,13.041 L55.5709677,17.6486667 L52.4845161,17.6486667 L53.1448387,13.041 C53.3006452,11.9676667 53.5306452,10.327 52.1580645,10.327 C50.7854839,10.327 50.5554839,11.96 50.3996774,13.041 L49.7393548,17.6486667 L46.6529032,17.6486667 L48.0329032,7.99633333 L51.1193548,7.99633333 L50.9487097,9.2 L50.9412903,9.2 Z" id="Fill-9"></path>
                        <path d="M72.6725806,13.041 C73.14,9.74433333 71.6932258,7.67433333 68.6735484,7.67433333 C65.8393548,7.67433333 63.583871,9.614 63.123871,12.834 C62.6490323,16.169 64.5483871,17.9783333 67.4270968,17.9783333 C69.4080645,17.9783333 71.5077419,16.9433333 72.323871,14.6663333 L69.356129,14.6663333 C68.9258065,15.3103333 68.413871,15.5556667 67.7535484,15.5556667 C66.4848387,15.5556667 65.9283871,14.8043333 66.1212903,13.409 L72.6206452,13.409 L72.6725806,13.0563333 L72.6725806,13.041 Z M66.4625806,11.4233333 C66.7890323,10.4266667 67.6125806,9.89766667 68.5103226,9.89766667 C69.3412903,9.89766667 70.0164516,10.5033333 70.0387097,11.4233333 L66.4551613,11.4233333 L66.4625806,11.4233333 Z" id="Fill-11"></path>
                        <path d="M47.2316129,5.02933333 C48.2554839,5.02933333 49.093871,4.14 49.2422581,3.08966667 C49.3832258,2.06233333 48.7970968,1.15766667 47.7732258,1.15766667 C46.7493548,1.15766667 45.9109677,2.06233333 45.7625806,3.08966667 C45.6141935,4.14 46.2077419,5.02933333 47.2316129,5.02933333 M47.6767742,1.863 C48.2777419,1.863 48.6190323,2.461 48.5374194,3.059 C48.4558065,3.611 47.9067742,4.324 47.3280645,4.324 C46.7493548,4.324 46.4006452,3.611 46.4748387,3.059 C46.5564516,2.461 47.0758065,1.863 47.6767742,1.863" id="Fill-13"></path>
                        <path d="M52.1803226,1.15 L52.6774194,1.15 L54.1687097,3.726 L54.1835484,3.726 L54.5322581,1.24966667 L55.2148387,1.24966667 L54.6880645,5.00633333 L54.1909677,5.00633333 L52.6996774,2.43033333 L52.6922581,2.43033333 L52.336129,4.92966667 L51.6535484,4.92966667 C51.6535484,4.92966667 52.1803226,1.15 52.1803226,1.15" id="Fill-15"></path>
                        <polygon id="Fill-17" points="58.293871 4.301 59.2658065 4.301 59.1767742 4.922 57.5222581 4.922 58.0416129 1.242 58.7241935 1.242 58.293871 4.29333333"></polygon>
                        <polygon id="Fill-19" points="62.4116129 4.92966667 61.7290323 4.92966667 62.2483871 1.24966667 62.9309677 1.24966667"></polygon>
                        <polygon id="Fill-21" points="65.7725806 1.15 66.2696774 1.15 67.7609677 3.726 67.7683871 3.726 68.1170968 1.24966667 68.8070968 1.24966667 68.2803226 5.00633333 67.7832258 5.00633333 66.2919355 2.43033333 65.9358065 4.92966667 65.2532258 4.92966667 65.7874194 1.15"></polygon>
                        <polygon id="Fill-23" points="72.2274194 1.87066667 72.116129 2.68333333 73.2067742 2.68333333 73.1177419 3.30433333 72.0270968 3.30433333 71.886129 4.301 73.0212903 4.301 72.9322581 4.922 71.1145161 4.922 71.633871 1.242 73.4516129 1.242 73.3625806 1.863 72.2274194 1.863"></polygon>
                        <path d="M89.2325806,4.75333333 L84.8403226,4.75333333 L82.8816129,18.4 L79.223871,18.4 L81.1825806,4.75333333 L76.7903226,4.75333333 L77.3096774,1.15 L89.7519355,1.15 C89.7519355,1.15 89.2325806,4.75333333 89.2325806,4.75333333" id="Fill-25"></path>
                        <path d="M100.710323,10.1123333 L99.5454839,18.4 L96.0954839,18.4 L97.0229032,12.0213333 C97.0674194,11.5536667 97.1490323,11.155 97.163871,10.833 C97.186129,10.5416667 97.3270968,9.62933333 96.9487097,9.06966667 C96.7187097,8.72466667 96.0435484,8.50233333 95.5241935,8.60966667 C93.8993548,8.93933333 93.4245161,10.4343333 93.3058065,11.2086667 L92.2596774,18.3923333 L88.8467742,18.3923333 L91.3248387,1.14233333 L94.7748387,1.14233333 L93.8919355,7.19133333 C94.4558065,6.63933333 95.116129,6.095 95.7393548,5.82666667 C96.3625806,5.55066667 96.956129,5.46633333 97.623871,5.46633333 C98.4696774,5.46633333 99.2858065,5.78833333 99.9090323,6.36333333 C100.502581,6.97666667 100.836452,7.78933333 100.799355,8.59433333 C100.799355,9.05433333 100.762258,9.69066667 100.710323,10.1046667 L100.710323,10.1123333 Z" id="Fill-27"></path>
                        <path d="M109.36871,12.282 C108.760323,12.351 108.21871,12.42 107.706774,12.4966667 C107.254194,12.5656667 106.809032,12.673 106.37129,12.857 C106.03,13.0026667 105.725806,13.2173333 105.540323,13.5393333 C105.354839,13.8996667 105.265806,14.2983333 105.288065,14.6893333 C105.273226,15.0496667 105.466129,15.41 105.755484,15.5863333 C106.111613,15.7626667 106.541935,15.8776667 106.957419,15.8393333 C107.343226,15.8393333 107.684516,15.732 108.025806,15.5863333 C108.367097,15.4253333 108.708387,15.226 108.990323,14.973 L109.376129,12.2743333 L109.36871,12.282 Z M104.939355,18.4 C103.373871,18.469 101.941935,17.2116667 101.786129,15.594 C101.786129,15.4866667 101.786129,15.479 101.77129,15.3026667 C101.66,13.6696667 102.305484,11.9753333 103.915484,11.2316667 C104.731613,10.833 105.584839,10.5493333 106.482581,10.4036667 C107.536129,10.2273333 108.634194,10.12 109.695161,10.0433333 C109.695161,10.0433333 109.769355,9.60633333 109.761935,9.46833333 C109.769355,9.00066667 109.517097,8.602 109.094194,8.42566667 C108.485806,8.17266667 107.818065,8.06533333 107.194839,8.10366667 C106.564194,8.10366667 106.119032,8.165 105.295484,8.395 C104.412581,8.64033333 103.448065,9.04666667 103.448065,9.04666667 L103.870968,6.08733333 C104.249355,5.98 104.865161,5.83433333 105.696129,5.68866667 C106.527097,5.543 107.358065,5.474 108.196452,5.474 C109.865806,5.474 111.104839,5.727 111.89871,6.233 C112.692581,6.739 113.197097,7.636 113.211935,8.57133333 C113.219355,8.74766667 113.234194,8.97 113.211935,9.14633333 C113.189677,9.361 113.167419,9.545 113.145161,9.75966667 L111.89129,18.4076667 L108.515484,18.4076667 L108.738065,16.767 L107.996129,17.3573333 C107.729032,17.572 107.461935,17.756 107.187419,17.894 C106.883226,18.0396667 106.541935,18.1853333 106.200645,18.2926667 C105.785161,18.3616667 105.369677,18.4 104.954194,18.4 L104.939355,18.4 Z" id="Fill-29"></path>
                        <path d="M116.743548,1.15 L116.231613,4.75333333 L119.681613,4.75333333 L120.193548,1.15 L116.743548,1.15 Z M117.730323,18.4 L114.280323,18.4 L115.897742,7.084 L119.347742,7.084 L117.730323,18.4 Z" id="Fill-31"></path>
                        <path d="M131.159355,13.5316667 C131.159355,13.5316667 130.246774,11.7453333 129.994516,10.8023333 C129.341613,11.4463333 128.703548,12.029 128.065484,12.558 C128.176774,12.8263333 128.495806,13.4626667 128.495806,13.4626667 C127.368065,14.6356667 124.949355,16.2303333 123.532258,16.8896667 L126.596452,17.4186667 C128.102581,16.5446667 130.098387,14.559 131.166774,13.5393333" id="Fill-33"></path>
                        <path d="M137.532581,13.4856667 C137.814516,13.1406667 138.133548,12.7266667 138.252258,12.535 C138.029677,12.2666667 137.317419,11.2853333 136.983548,10.7486667 C136.293548,11.7913333 135.35871,13.0103333 134.89871,13.5393333 C135.232581,14.03 136.664516,16.0156667 138.437742,17.434 C138.437742,17.434 140.834194,17.0736667 141.435161,16.974 C139.832581,15.893 137.77,13.7923333 137.532581,13.4856667" id="Fill-35"></path>
                        <path d="M132.472581,9.89 L132.36129,10.672 L131.522903,16.4296667 C131.470968,16.7976667 131.285484,16.9816667 130.973871,16.9816667 L129.208065,16.9816667 L129.660645,18.3923333 L131.752903,18.3923333 C132.212903,18.3923333 132.628387,18.2466667 132.991935,17.9476667 C133.370323,17.641 133.592903,17.2423333 133.667097,16.767 L134.55,10.672 L134.66129,9.89 L134.750323,9.292 L132.554194,9.292 L132.465161,9.89" id="Fill-37"></path>
                        <path d="M142.904194,2.668 L143.111935,1.23433333 L135.477419,1.23433333 C135.566452,0.996666667 135.878065,0.092 135.885484,0.069 L133.615161,0.069 C133.615161,0.069 133.28129,0.996666667 133.184839,1.23433333 L126.529677,1.23433333 L126.321935,2.668 L132.554194,2.668 C132.316774,3.15866667 132.057097,3.64166667 131.782581,4.12466667 L126.952581,4.12466667 L126.744839,5.55833333 L130.899677,5.55833333 C130.625161,5.97233333 129.927742,6.946 129.875806,7.015 L125.127419,7.015 L124.919677,8.44866667 L128.733226,8.44866667 C127.345806,10.0586667 126.262581,11.1013333 123.984839,12.6653333 L127.034194,12.6653333 C128.621935,11.4003333 129.987097,10.051 131.270645,8.44866667 L136.456774,8.44866667 C136.560645,8.68633333 137.703226,10.741 139.239032,12.6653333 L142.414516,12.6653333 C140.129355,10.6336667 139.328065,9.03133333 138.934839,8.44866667 L142.644516,8.44866667 L142.852258,7.015 L132.353871,7.015 C132.695161,6.532 133.021613,6.04133333 133.325806,5.55833333 L141.650323,5.55833333 L141.858065,4.12466667 L134.156774,4.12466667 C134.416452,3.64166667 134.66129,3.151 134.883871,2.668 L142.919032,2.668" id="Fill-39"></path>
                        <path d="M161.645484,2.21566667 L159.590323,16.353 C159.568065,16.5063333 159.493871,16.6366667 159.375161,16.744 C159.27129,16.836 159.137742,16.8896667 158.974516,16.8896667 L146.732581,16.8896667 C146.591613,16.8896667 146.472903,16.8436667 146.369032,16.744 C146.257742,16.6213333 146.213226,16.4833333 146.242903,16.3146667 L148.298065,2.17733333 C148.320323,2.024 148.401935,1.89366667 148.542903,1.78633333 C148.669032,1.69433333 148.802581,1.64066667 148.943548,1.64066667 L161.237419,1.64066667 C161.356129,1.64066667 161.452581,1.702 161.541613,1.817 C161.57129,1.863 161.593548,1.909 161.615806,1.955 C161.645484,2.03933333 161.652903,2.12366667 161.638065,2.208 L161.645484,2.21566667 Z M163.285161,0.782 C162.966129,0.368 162.506129,0.153333333 161.905161,0.153333333 L148.654194,0.153333333 C148.149677,0.153333333 147.689677,0.291333333 147.296452,0.567333333 C146.769677,0.927666667 146.465484,1.39533333 146.383871,1.978 L144.306452,16.2763333 C144.224839,16.8283333 144.32129,17.296 144.588387,17.687 C144.892581,18.1316667 145.315484,18.3463333 145.842258,18.3463333 L159.367742,18.3463333 C159.990968,18.3463333 160.510323,18.1316667 160.933226,17.7023333 C161.289355,17.3343333 161.497097,16.905 161.57129,16.4143333 L163.619032,2.29233333 C163.700645,1.71733333 163.589355,1.21133333 163.285161,0.774333333 L163.285161,0.782 Z" id="Fill-41"></path>
                        <path d="M148.602258,4.14 L148.394516,5.57366667 L155.754516,5.57366667 C155.850968,7.74333333 155.947419,9.453 156.021613,10.7026667 C155.160968,11.983 154.322581,13.087 153.432258,14.2753333 L153.610323,13.087 C150.917097,13.5623333 149.373871,13.8076667 147.148065,14.0376667 L146.910645,15.6476667 C148.787742,15.456 150.865161,15.1263333 153.128065,14.674 C152.771935,15.1416667 152.415806,15.617 152.052258,16.0846667 L154.085161,16.0846667 C154.827097,15.1416667 155.539355,14.191 156.229355,13.2403333 C156.340645,14.1756667 156.422258,14.72 156.474194,14.8733333 C156.585484,15.1876667 156.778387,15.41 157.052903,15.5556667 C157.297742,15.6783333 157.601935,15.732 157.980323,15.732 L158.885484,15.732 L159.375161,14.283 L158.536774,14.283 C158.35871,14.283 158.202903,14.1986667 158.143548,14.145 C158.084194,14.0913333 158.01,13.9533333 158.002581,13.892 C157.906129,12.949 157.817097,12.0136667 157.742903,11.0783333 C158.774194,9.545 159.746129,7.98866667 160.643871,6.42466667 L158.863226,6.45533333 C158.373548,7.21433333 157.987742,7.80466667 157.535161,8.47166667 C157.468387,7.50566667 157.416452,6.53966667 157.371935,5.58133333 L160.584516,5.58133333 L160.792258,4.14766667 L160.072581,4.14766667 C159.901935,3.48066667 159.842581,3.20466667 159.783226,2.461 L158.217742,2.461 C158.24,3.036 158.314194,3.66466667 158.432903,4.14766667 L157.312581,4.14766667 C157.290323,3.60333333 157.275484,3.05133333 157.253226,2.507 L157.253226,2.47633333 L155.606129,2.47633333 L155.606129,2.507 C155.628387,3.07433333 155.650645,3.61866667 155.672903,4.14766667 L148.58,4.14766667" id="Fill-43"></path>
                        <path d="M152.571613,8.165 L152.178387,10.856 C152.133871,11.0936667 152.000323,11.2163333 151.777742,11.2163333 L150.115806,11.2163333 C150.011935,11.2163333 149.930323,11.178 149.856129,11.0936667 C149.789355,11.017 149.767097,10.9326667 149.774516,10.8253333 L150.160323,8.18033333 C150.182581,8.073 150.241935,7.981 150.338387,7.90433333 C150.427419,7.83533333 150.53129,7.797 150.65,7.797 L152.245161,7.797 C152.497419,7.797 152.60871,7.91966667 152.571613,8.165 L152.571613,8.165 Z M154.092581,6.923 C153.855161,6.647 153.491613,6.509 152.994516,6.509 L150.100968,6.509 C149.915484,6.509 149.737419,6.53966667 149.544516,6.60866667 C149.351613,6.67 149.188387,6.762 149.04,6.86933333 C148.891613,6.992 148.765484,7.13 148.661613,7.28333333 C148.557742,7.44433333 148.498387,7.613 148.46871,7.774 L147.956774,11.293 C147.927097,11.569 148.00871,11.845 148.216452,12.1056667 C148.431613,12.3816667 148.735806,12.5196667 149.129032,12.5196667 L152.311935,12.5196667 C152.794194,12.5196667 153.172581,12.3586667 153.454516,12.0366667 C153.699355,11.7913333 153.832903,11.5383333 153.877419,11.2853333 L154.359677,7.98866667 C154.419032,7.55166667 154.33,7.199 154.085161,6.90766667 L154.092581,6.923 Z" id="Fill-45"></path>
                        <path d="M164.405484,18.4 L166.393871,18.4 C166.898387,17.3036667 167.402903,15.9313333 167.907419,14.283 L166.156452,14.283 C165.666774,15.847 165.080645,17.2116667 164.398065,18.4" id="Fill-47"></path>
                        <path d="M170.763871,18.4 C170.496774,16.8973333 170.348387,15.663 170.392903,14.283 L168.679032,14.283 C168.679032,15.6323333 168.730968,16.9663333 168.93129,18.4 L170.763871,18.4 Z" id="Fill-49"></path>
                        <path d="M181.462581,10.465 L181.314194,11.4693333 L178.739677,11.4693333 L178.947419,10.0203333 L181.084194,10.0203333 C181.195484,10.0203333 181.284516,10.0586667 181.366129,10.143 C181.447742,10.2273333 181.47,10.3346667 181.455161,10.465 L181.462581,10.465 Z M180.89129,14.4056667 L178.316774,14.4056667 L178.561613,12.742 L181.136129,12.742 L180.89129,14.4056667 Z M177.062903,11.4616667 L174.503226,11.4616667 L174.651613,10.4573333 C174.673871,10.327 174.733226,10.2196667 174.829677,10.1353333 C174.933548,10.051 175.044839,10.0126667 175.163548,10.0126667 L177.270645,10.0126667 C177.270645,10.0126667 177.062903,11.4616667 177.062903,11.4616667 L177.062903,11.4616667 Z M176.632581,14.4056667 L174.072903,14.4056667 L174.317742,12.742 L176.877419,12.742 L176.632581,14.4056667 Z M182.805484,9.14633333 C182.50871,8.86266667 182.093226,8.717 181.544194,8.717 L175.126452,8.717 C174.510645,8.717 174.035806,8.855 173.694516,9.131 C173.264194,9.46833333 172.997097,10.005 172.885806,10.741 L171.772903,18.4 L173.486774,18.4 L173.88,15.6936667 L180.698387,15.6936667 L180.305161,18.4 L181.996774,18.4 L183.117097,10.6643333 C183.213548,9.99733333 183.109677,9.49133333 182.798065,9.14633333 L182.805484,9.14633333 Z" id="Fill-51"></path>
                        <path d="M171.060645,1.932 L170.749032,4.094 L168.515806,4.094 L168.834839,1.91666667 C168.857097,1.76333333 168.916452,1.64833333 169.020323,1.54866667 C169.116774,1.45666667 169.235484,1.41066667 169.376452,1.41066667 L170.608065,1.41066667 C170.756452,1.41066667 170.875161,1.46433333 170.964194,1.57166667 C171.053226,1.679 171.090323,1.794 171.068065,1.932 L171.060645,1.932 Z M170.170323,8.06533333 L167.937097,8.06533333 L168.322903,5.42033333 L170.556129,5.42033333 L170.170323,8.06533333 Z M169.650968,11.6303333 C169.636129,11.7376667 169.576774,11.8373333 169.465484,11.9293333 C169.346774,12.029 169.220645,12.0826667 169.087097,12.0826667 L167.855484,12.0826667 C167.736774,12.0826667 167.625484,12.0366667 167.536452,11.937 C167.447419,11.8373333 167.410323,11.7223333 167.425161,11.5996667 L167.744194,9.41466667 L169.977419,9.41466667 L169.658387,11.6303333 L169.650968,11.6303333 Z M172.455484,0.536666667 C172.218065,0.253 171.847097,0.107333333 171.342581,0.107333333 L169.213226,0.107333333 C168.671613,0.107333333 168.24129,0.222333333 167.937097,0.444666667 C167.506774,0.766666667 167.247097,1.265 167.150645,1.932 L165.763226,11.4846667 C165.666774,12.144 165.740968,12.627 165.985806,12.9336667 C166.193548,13.2326667 166.564516,13.3783333 167.083871,13.3783333 L169.420968,13.3783333 C170.007097,13.3783333 170.489355,13.202 170.852903,12.8416667 C171.112581,12.558 171.275806,12.1976667 171.335161,11.7683333 L172.767097,1.909 C172.84871,1.32633333 172.752258,0.866333333 172.462903,0.529 L172.455484,0.536666667 Z" id="Fill-53"></path>
                        <path d="M181.12871,3.76433333 L176.892258,3.76433333 L177.107419,2.29233333 L181.343871,2.29233333 L181.12871,3.76433333 Z M180.728065,6.52433333 L176.491613,6.52433333 L176.706774,5.05233333 L180.943226,5.05233333 L180.728065,6.52433333 Z M184.593548,2.29233333 L184.779032,1.00433333 L183.213548,1.00433333 L183.361935,0.00766666667 L181.685161,0.00766666667 L181.536774,1.00433333 L177.300323,1.00433333 L177.44871,0 L175.771935,0 L175.623548,1.00433333 L174.058065,1.00433333 L173.872581,2.29233333 L175.438065,2.29233333 L175.222903,3.76433333 L173.917097,3.76433333 L173.731613,5.05233333 L175.037419,5.05233333 L174.822258,6.52433333 L172.863548,6.52433333 L172.678065,7.81233333 L184.192903,7.81233333 L184.378387,6.52433333 L182.419677,6.52433333 L182.634839,5.05233333 L183.948065,5.05233333 L184.133548,3.76433333 L182.820323,3.76433333 L183.035484,2.29233333 L184.600968,2.29233333 L184.593548,2.29233333 Z" id="Fill-55"></path>
                        <path d="M201.613548,5.62733333 L199.87,5.62733333 C199.009355,8.855 196.234516,14.9576667 192.450645,17.986 L194.802581,17.986 C197.710968,15.0726667 199.98129,10.9556667 201.606129,5.62733333" id="Fill-57"></path>
                        <path d="M198.579032,5.62733333 L196.813226,5.62733333 C195.514839,9.09266667 193.919677,11.6303333 191.901613,13.8996667 L194.045806,13.8996667 C195.759677,11.7223333 197.265806,8.96233333 198.579032,5.62733333" id="Fill-59"></path>
                        <path d="M190.336129,3.67233333 L188.985806,3.67233333 C189.141613,2.898 189.297419,2.00866667 189.445806,1.00433333 L187.850645,1.00433333 C187.464839,3.64166667 186.945484,6.003 186.136774,8.142 L187.813548,8.142 C188.102903,7.28333333 188.392258,6.28666667 188.696452,5.152 L190.113548,5.152 L189.282581,10.8636667 C188.036129,11.339 187.041935,11.7453333 185.921613,12.0596667 L185.676774,13.7233333 C187.012258,13.271 187.91,12.926 189.045161,12.4506667 L188.184516,18.3923333 L189.935484,18.3923333 L190.907419,11.7146667 C191.575161,11.431 192.139032,11.1626667 192.599032,10.925 L192.829032,9.33033333 C192.16871,9.64466667 191.545484,9.92066667 191.152258,10.028 L191.864516,5.14433333 L193.370645,5.14433333 L193.585806,3.657 L192.079677,3.657 L192.606452,0.00766666667 L190.855484,0.00766666667 L190.32871,3.657" id="Fill-61"></path>
                        <path d="M192.443226,7.80466667 L194.46871,7.80466667 C194.936129,7.13766667 195.507419,6.13333333 196.182581,4.807 C196.256774,4.669 196.323548,4.52333333 196.397742,4.37 C196.464516,4.23966667 196.575806,3.98666667 196.724194,3.59566667 L202.51871,3.59566667 C202.637419,3.59566667 202.726452,3.634 202.800645,3.703 C202.882258,3.772 202.919355,3.864 202.897097,3.97133333 L201.086774,16.445 C201.064516,16.5753333 201.012581,16.6826667 200.916129,16.767 C200.827097,16.8513333 200.693548,16.9126667 200.567419,16.9126667 L197.644194,16.9126667 L198.067097,18.4 L200.938387,18.4 C201.413226,18.4 201.813871,18.2773333 202.155161,18.0243333 C202.570645,17.7176667 202.815484,17.296 202.889677,16.7746667 L204.737097,4.06333333 C204.833548,3.41933333 204.714839,2.921 204.395806,2.576 C204.099032,2.254 203.676129,2.093 203.134516,2.093 L197.302903,2.093 C197.547742,1.43366667 197.777742,0.736 197.992903,2.72374715e-15 L196.19,2.72374715e-15 C195.492581,2.03933333 194.424194,5.27466667 192.435806,7.80466667 L192.443226,7.80466667 Z" id="Fill-63"></path>
                    </g>
                </g>
            </g>
        </g>
    </g>
</svg>